<?xml version="1.0" encoding="utf-8"?>
<!DOCTYPE svg PUBLIC "-//W3C//DTD SVG 1.1//EN" "http://www.w3.org/Graphics/SVG/1.1/DTD/svg11.dtd">
<svg version="1.1" xmlns="http://www.w3.org/2000/svg" width="30px" height="30px" x="0px" y="0px" viewBox="0 0 1000 1000" enable-background="new 0 0 1000 1000" xml:space="preserve">
    <g>
        <path fill="white" stroke="white" d="M761.5,180.8L447,499.5l314.5,318.6c9.7,9.7,17,20.8,21.9,33.3c4.9,12.5,7.3,25.2,7.3,38c0,12.8-2.4,25.3-7.3,37.5c-4.9,12.2-12.2,23.1-21.9,32.8C742,979.9,718.8,990,691.7,990c-27.1,0-50.3-10.1-69.8-30.2L241.9,576.5c-9.7-9.7-17.3-21.4-22.9-34.9c-5.6-13.6-8.7-27.3-9.4-41.2c-0.7-13.9,1-27.2,5.3-40.1c4.2-12.8,11.1-23.5,20.8-31.8L622,39.1C641.4,19.7,664.7,10,691.7,10c27.1,0,50.3,9.7,69.7,29.1c9.7,9.7,17,20.8,21.9,33.3c4.9,12.5,7.3,25.2,7.3,38c0,12.8-2.4,25.3-7.3,37.5C778.5,160.1,771.2,171.1,761.5,180.8L761.5,180.8z"/>
    </g>
</svg>
